<svg xmlns="http://www.w3.org/2000/svg" viewBox="0 0 1000 1200">
  <!-- Background -->
  <rect width="1000" height="1200" fill="#111827" />
  
  <!-- Navigation Bar -->
  <rect x="0" y="0" width="1000" height="60" fill="#1f2937" />
  <text x="30" y="38" font-family="Arial" font-size="24" font-weight="bold" fill="#60a5fa">Scrubbe</text>
  <rect x="120" y="20" width="120" height="24" rx="4" fill="#2563eb" />
  <text x="140" y="36" font-family="Arial" font-size="12" fill="#ffffff">SIEM &amp; SOAR</text>
  
  <!-- Nav Buttons -->
  <rect x="800" y="15" width="120" height="30" rx="4" fill="#3b82f6" />
  <text x="820" y="35" font-family="Arial" font-size="14" fill="#ffffff">New Incident</text>
  <circle cx="940" cy="30" r="10" fill="#1f2937" stroke="#d1d5db" stroke-width="1" />
  <circle cx="940" cy="30" r="3" fill="#d1d5db" />
  <circle cx="970" cy="30" r="15" fill="#d1d5db" />
  <circle cx="975" cy="20" r="6" fill="#ef4444" />
  
  <!-- Header -->
  <text x="30" y="90" font-family="Arial" font-size="18" font-weight="bold" fill="#f9fafb">Security Operations Dashboard</text>
  <rect x="800" y="70" width="150" height="30" rx="4" fill="#374151" />
  <text x="810" y="90" font-family="Arial" font-size="12" fill="#e5e7eb">Last 24 Hours</text>
  <rect x="960" y="70" width="30" height="30" rx="4" fill="#374151" />
  
  <!-- Stat Cards -->
  <rect x="30" y="110" width="225" height="80" rx="8" fill="#1e293b" />
  <text x="50" y="135" font-family="Arial" font-size="12" fill="#9ca3af">Active Incidents</text>
  <text x="50" y="165" font-family="Arial" font-size="24" font-weight="bold" fill="#f9fafb">12</text>
  <text x="50" y="185" font-family="Arial" font-size="10" fill="#9ca3af">+3 from yesterday</text>
  
  <rect x="270" y="110" width="225" height="80" rx="8" fill="#1e293b" />
  <text x="290" y="135" font-family="Arial" font-size="12" fill="#9ca3af">Avg. Response Time</text>
  <text x="290" y="165" font-family="Arial" font-size="24" font-weight="bold" fill="#f9fafb">24m</text>
  <text x="290" y="185" font-family="Arial" font-size="10" fill="#4ade80">-8m from baseline</text>
  
  <rect x="510" y="110" width="225" height="80" rx="8" fill="#1e293b" />
  <text x="530" y="135" font-family="Arial" font-size="12" fill="#9ca3af">Automation Rate</text>
  <text x="530" y="165" font-family="Arial" font-size="24" font-weight="bold" fill="#f9fafb">78%</text>
  <text x="530" y="185" font-family="Arial" font-size="10" fill="#4ade80">+5% from last week</text>
  
  <rect x="750" y="110" width="225" height="80" rx="8" fill="#1e293b" />
  <text x="770" y="135" font-family="Arial" font-size="12" fill="#9ca3af">System Health</text>
  <text x="770" y="165" font-family="Arial" font-size="24" font-weight="bold" fill="#f9fafb">98%</text>
  <text x="770" y="185" font-family="Arial" font-size="10" fill="#9ca3af">All systems operational</text>
  
  <!-- Active Incidents Panel -->
  <rect x="30" y="210" width="640" height="280" rx="8" fill="#1e293b" />
  <text x="50" y="240" font-family="Arial" font-size="16" font-weight="bold" fill="#f9fafb">Active Incidents</text>
  <text x="600" y="240" font-family="Arial" font-size="12" fill="#60a5fa">View All</text>
  
  <!-- Incidents Table -->
  <rect x="50" y="260" width="600" height="30" fill="#1e293b" />
  <text x="60" y="280" font-family="Arial" font-size="12" fill="#9ca3af">ID</text>
  <text x="130" y="280" font-family="Arial" font-size="12" fill="#9ca3af">Title</text>
  <text x="330" y="280" font-family="Arial" font-size="12" fill="#9ca3af">Severity</text>
  <text x="410" y="280" font-family="Arial" font-size="12" fill="#9ca3af">Status</text>
  <text x="480" y="280" font-family="Arial" font-size="12" fill="#9ca3af">Time</text>
  <text x="550" y="280" font-family="Arial" font-size="12" fill="#9ca3af">Assigned</text>
  
  <line x1="50" y1="290" x2="650" y2="290" stroke="#374151" stroke-width="1" />
  
  <!-- Row 1 -->
  <text x="60" y="320" font-family="Arial" font-size="12" fill="#f9fafb">INC-423</text>
  <text x="130" y="320" font-family="Arial" font-size="12" fill="#f9fafb">Multiple Failed Login Attempts</text>
  <rect x="330" y="310" width="60" height="20" rx="10" fill="#ef4444" />
  <text x="340" y="324" font-family="Arial" font-size="10" fill="#ffffff">Critical</text>
  <text x="410" y="320" font-family="Arial" font-size="12" fill="#f9fafb">In Progress</text>
  <text x="480" y="320" font-family="Arial" font-size="12" fill="#f9fafb">10m ago</text>
  <text x="550" y="320" font-family="Arial" font-size="12" fill="#f9fafb">Alex S.</text>
  
  <line x1="50" y1="330" x2="650" y2="330" stroke="#374151" stroke-width="1" />
  
  <!-- Row 2 -->
  <text x="60" y="360" font-family="Arial" font-size="12" fill="#f9fafb">INC-422</text>
  <text x="130" y="360" font-family="Arial" font-size="12" fill="#f9fafb">Suspicious File Download</text>
  <rect x="330" y="350" width="60" height="20" rx="10" fill="#f97316" />
  <text x="340" y="364" font-family="Arial" font-size="10" fill="#ffffff">High</text>
  <text x="410" y="360" font-family="Arial" font-size="12" fill="#f9fafb">Investigating</text>
  <text x="480" y="360" font-family="Arial" font-size="12" fill="#f9fafb">32m ago</text>
  <text x="550" y="360" font-family="Arial" font-size="12" fill="#f9fafb">Jamie T.</text>
  
  <line x1="50" y1="370" x2="650" y2="370" stroke="#374151" stroke-width="1" />
  
  <!-- Row 3 -->
  <text x="60" y="400" font-family="Arial" font-size="12" fill="#f9fafb">INC-421</text>
  <text x="130" y="400" font-family="Arial" font-size="12" fill="#f9fafb">DDoS Alert</text>
  <rect x="330" y="390" width="60" height="20" rx="10" fill="#eab308" />
  <text x="340" y="404" font-family="Arial" font-size="10" fill="#ffffff">Medium</text>
  <text x="410" y="400" font-family="Arial" font-size="12" fill="#f9fafb">Contained</text>
  <text x="480" y="400" font-family="Arial" font-size="12" fill="#f9fafb">1h ago</text>
  <text x="550" y="400" font-family="Arial" font-size="12" fill="#f9fafb">Riley P.</text>
  
  <line x1="50" y1="410" x2="650" y2="410" stroke="#374151" stroke-width="1" />
  
  <!-- Row 4 -->
  <text x="60" y="440" font-family="Arial" font-size="12" fill="#f9fafb">INC-420</text>
  <text x="130" y="440" font-family="Arial" font-size="12" fill="#f9fafb">Anomalous Network Traffic</text>
  <rect x="330" y="430" width="60" height="20" rx="10" fill="#3b82f6" />
  <text x="340" y="444" font-family="Arial" font-size="10" fill="#ffffff">Low</text>
  <text x="410" y="440" font-family="Arial" font-size="12" fill="#f9fafb">Resolved</text>
  <text x="480" y="440" font-family="Arial" font-size="12" fill="#f9fafb">2h ago</text>
  <text x="550" y="440" font-family="Arial" font-size="12" fill="#f9fafb">Morgan W.</text>
  
  <!-- Threat Intelligence Panel -->
  <rect x="690" y="210" width="280" height="280" rx="8" fill="#1e293b" />
  <text x="710" y="240" font-family="Arial" font-size="16" font-weight="bold" fill="#f9fafb">Threat Intelligence</text>
  <text x="880" y="240" font-family="Arial" font-size="12" fill="#60a5fa">Configure Sources</text>
  
  <!-- Threat Card 1 -->
  <rect x="710" y="260" width="240" height="80" rx="4" fill="#1f2937" />
  <text x="720" y="280" font-family="Arial" font-size="10" fill="#9ca3af">Malware Alert</text>
  <text x="720" y="295" font-family="Arial" font-size="12" font-weight="bold" fill="#f9fafb">New Ransomware Variant Detected</text>
  <text x="910" y="280" font-family="Arial" font-size="10" fill="#9ca3af">15m ago</text>
  <text x="720" y="310" font-family="Arial" font-size="11" fill="#d1d5db">A new variant of WannaCry targeting healthcare...</text>
  <text x="920" y="330" font-family="Arial" font-size="10" fill="#60a5fa">Analyze</text>
  
  <!-- Threat Card 2 -->
  <rect x="710" y="350" width="240" height="80" rx="4" fill="#1f2937" />
  <text x="720" y="370" font-family="Arial" font-size="10" fill="#9ca3af">Vulnerability</text>
  <text x="720" y="385" font-family="Arial" font-size="12" font-weight="bold" fill="#f9fafb">Critical Apache Struts Vulnerability</text>
  <text x="910" y="370" font-family="Arial" font-size="10" fill="#9ca3af">1h ago</text>
  <text x="720" y="400" font-family="Arial" font-size="11" fill="#d1d5db">CVE-2023-XXXX: Remote code execution...</text>
  <text x="910" y="420" font-family="Arial" font-size="10" fill="#60a5fa">Scan Assets</text>
  
  <!-- Active Playbooks Panel -->
  <rect x="30" y="510" width="280" height="280" rx="8" fill="#1e293b" />
  <text x="50" y="540" font-family="Arial" font-size="16" font-weight="bold" fill="#f9fafb">Active Playbooks</text>
  <text x="220" y="540" font-family="Arial" font-size="12" fill="#60a5fa">Manage</text>
  
  <!-- Playbook 1 -->
  <rect x="50" y="560" width="240" height="80" rx="4" fill="#1f2937" />
  <text x="60" y="580" font-family="Arial" font-size="12" font-weight="bold" fill="#f9fafb">Phishing Response</text>
  <rect x="200" y="570" width="70" height="20" rx="4" fill="#064e3b" />
  <text x="210" y="584" font-family="Arial" font-size="10" fill="#6ee7b7">Running</text>
  <text x="60" y="600" font-family="Arial" font-size="10" fill="#9ca3af">Incident: INC-423</text>
  <rect x="60" y="610" width="220" height="8" rx="4" fill="#374151" />
  <rect x="60" y="610" width="165" height="8" rx="4" fill="#10b981" />
  <text x="60" y="630" font-family="Arial" font-size="10" fill="#9ca3af">75% Complete</text>
  <text x="230" y="630" font-family="Arial" font-size="10" fill="#9ca3af">4/6 Tasks</text>
  
  <!-- Playbook 2 -->
  <rect x="50" y="650" width="240" height="90" rx="4" fill="#1f2937" />
  <text x="60" y="670" font-family="Arial" font-size="12" font-weight="bold" fill="#f9fafb">Malware Containment</text>
  <rect x="200" y="660" width="70" height="20" rx="4" fill="#713f12" />
  <text x="210" y="674" font-family="Arial" font-size="10" fill="#fcd34d">Waiting</text>
  <text x="60" y="690" font-family="Arial" font-size="10" fill="#9ca3af">Incident: INC-422</text>
  <rect x="60" y="700" width="220" height="8" rx="4" fill="#374151" />
  <rect x="60" y="700" width="110" height="8" rx="4" fill="#eab308" />
  <text x="60" y="720" font-family="Arial" font-size="10" fill="#9ca3af">50% Complete</text>
  <text x="230" y="720" font-family="Arial" font-size="10" fill="#9ca3af">3/6 Tasks</text>
  <text x="60" y="735" font-family="Arial" font-size="10" fill="#fcd34d">Action Required: </text>
  <text x="135" y="735" font-family="Arial" font-size="10" fill="#d1d5db">Authorize quarantine of affected systems</text>
  
  <!-- SIEM Alerts Panel -->
  <rect x="330" y="510" width="640" height="280" rx="8" fill="#1e293b" />
  <text x="350" y="540" font-family="Arial" font-size="16" font-weight="bold" fill="#f9fafb">SIEM Alerts</text>
  <rect x="800" y="525" width="100" height="25" rx="4" fill="#374151" />
  <text x="810" y="542" font-family="Arial" font-size="12" fill="#e5e7eb">All Sources</text>
  <text x="920" y="542" font-family="Arial" font-size="12" fill="#60a5fa">Configure</text>
  
  <!-- SIEM Table -->
  <rect x="350" y="560" width="600" height="30" fill="#1e293b" />
  <text x="360" y="580" font-family="Arial" font-size="12" fill="#9ca3af">Time</text>
  <text x="430" y="580" font-family="Arial" font-size="12" fill="#9ca3af">Source</text>
  <text x="500" y="580" font-family="Arial" font-size="12" fill="#9ca3af">Alert Type</text>
  <text x="600" y="580" font-family="Arial" font-size="12" fill="#9ca3af">Details</text>
  <text x="800" y="580" font-family="Arial" font-size="12" fill="#9ca3af">Status</text>
  <text x="890" y="580" font-family="Arial" font-size="12" fill="#9ca3af">Action</text>
  
  <line x1="350" y1="590" x2="950" y2="590" stroke="#374151" stroke-width="1" />
  
  <!-- SIEM Row 1 -->
  <text x="360" y="620" font-family="Arial" font-size="12" fill="#f9fafb">12:42:18</text>
  <text x="430" y="620" font-family="Arial" font-size="12" fill="#f9fafb">Firewall</text>
  <text x="500" y="620" font-family="Arial" font-size="12" fill="#f9fafb">Port Scan</text>
  <text x="600" y="620" font-family="Arial" font-size="12" fill="#f9fafb">Multiple ports scanned from 192.168.1.45</text>
  <rect x="800" y="610" width="70" height="20" rx="10" fill="#eab308" />
  <text x="810" y="624" font-family="Arial" font-size="10" fill="#ffffff">Investigating</text>
  <text x="890" y="620" font-family="Arial" font-size="12" fill="#60a5fa">...</text>
  
  <line x1="350" y1="630" x2="950" y2="630" stroke="#374151" stroke-width="1" />
  
  <!-- SIEM Row 2 -->
  <text x="360" y="660" font-family="Arial" font-size="12" fill="#f9fafb">12:38:05</text>
  <text x="430" y="660" font-family="Arial" font-size="12" fill="#f9fafb">EDR</text>
  <text x="500" y="660" font-family="Arial" font-size="12" fill="#f9fafb">Suspicious Process</text>
  <text x="600" y="660" font-family="Arial" font-size="12" fill="#f9fafb">powershell.exe with obfuscated parameters</text>
  <rect x="800" y="650" width="70" height="20" rx="10" fill="#f97316" />
  <text x="820" y="664" font-family="Arial" font-size="10" fill="#ffffff">New</text>
  <text x="890" y="660" font-family="Arial" font-size="12" fill="#60a5fa">...</text>
  
  <!-- Response Actions Panel -->
  <rect x="30" y="810" width="280" height="360" rx="8" fill="#1e293b" />
  <text x="50" y="840" font-family="Arial" font-size="16" font-weight="bold" fill="#f9fafb">Response Actions</text>
  <text x="200" y="840" font-family="Arial" font-size="12" fill="#60a5fa">Custom Action</text>
  
  <!-- Action Grid -->
  <rect x="50" y="860" width="120" height="80" rx="4" fill="#374151" />
  <circle cx="110" cy="890" r="12" fill="#ef4444" />
  <text x="90" y="930" font-family="Arial" font-size="12" fill="#f9fafb">Block IP</text>
  
  <rect x="180" y="860" width="120" height="80" rx="4" fill="#374151" />
  <circle cx="240" cy="890" r="12" fill="#f97316" />
  <text x="205" y="930" font-family="Arial" font-size="12" fill="#f9fafb">Disable User</text>
  
  <rect x="50" y="950" width="120" height="80" rx="4" fill="#374151" />
  <circle cx="110" cy="980" r="12" fill="#10b981" />
  <text x="90" y="1020" font-family="Arial" font-size="12" fill="#f9fafb">Quarantine</text>
  
  <rect x="180" y="950" width="120" height="80" rx="4" fill="#374151" />
  <circle cx="240" cy="980" r="12" fill="#3b82f6" />
  <text x="210" y="1020" font-family="Arial" font-size="12" fill="#f9fafb">Run Scan</text>
  
  <!-- Recent Actions -->
  <text x="50" y="1060" font-family="Arial" font-size="12" fill="#9ca3af">Recent Actions</text>
  <text x="50" y="1090" font-family="Arial" font-size="12" fill="#e5e7eb">Block IP</text>
  <text x="110" y="1090" font-family="Arial" font-size="10" fill="#9ca3af">203.0.113.25</text>
  <text x="240" y="1090" font-family="Arial" font-size="10" fill="#9ca3af">12:36:02</text>
  
  <text x="50" y="1120" font-family="Arial" font-size="12" fill="#e5e7eb">Disable User</text>
  <text x="130" y="1120" font-family="Arial" font-size="10" fill="#9ca3af">jsmith</text>
  <text x="240" y="1120" font-family="Arial" font-size="10" fill="#9ca3af">12:32:45</text>
  
  <text x="50" y="1150" font-family="Arial" font-size="12" fill="#e5e7eb">Run Scan</text>
  <text x="120" y="1150" font-family="Arial" font-size="10" fill="#9ca3af">web-srv-01</text>
  <text x="240" y="1150" font-family="Arial" font-size="10" fill="#9ca3af">12:15:30</text>
</svg>